<svg xmlns="http://www.w3.org/2000/svg" height="287.05" viewBox="0 0 281.13751 287.05499" width="281.14"><g transform="matrix(1.25 0 0 -1.25 2.2844 838.26)"><g><path d="m-0.99243 441.8h223.31v228.04h-223.31v-228.04z" fill="#00274c"/><path d="m110.47 543.73-32.552 44.764v-32.554h13.02v-32.146h-60.216v32.146h12.2v50.042h-12.2v32.15h47.3l32.602-45.168 32.678 45.168h47.3v-32.15h-12.216v-50.042h12.216v-32.146h-60.22v32.146h13.024v32.554l-32.936-44.764z" fill="#ffcb05"/><path d="m79.234 198.7v2.52c5.743 0.68 5.811 1.68 5.811 11.27v19.95c0 1.54-0.137 5.86-0.27 7.19-0.272 2.74-1.536 3.28-5.541 3.61v2.53h37.146l1.07-12.2h-2.27c-1.33 8.26-5.97 7.73-14.77 7.73-5.978-0.14-6.233-1.42-6.301-9.1v-19.04c0-11.4 0-11.46 6.061-11.94v-2.52h-20.936zm-38.533 0v2.52c3.4 0.34 4.864 0.54 5.334 2.75 0.328 1.45 0.399 6.7 0.399 8.57l-0.014 16.53c0 1.27-0.066 6.91-0.131 8.04-0.135 5.14-0.739 5.61-5.601 6.06v2.62h19.498v-2.62c-4.863-0.45-5.465-0.92-5.6-6.06l0.031-13.41h5.203c5.263 0 8.075 0.51 8.403 5.77h2.265v-15.53h-2.265c-0.268 5.07-1.667 5.57-7.405 5.57h-6.201l0.006-16.35c1.673-0.2 2.601-0.26 5.604-0.26 9.202 0 12.171-0.03 13.398 7.33h2.344l-0.737-11.53h-34.531zm79.479 0v2.52c5.54 0.81 5.54 1.08 5.6 10.87v19.07 6c-0.06 4.94-1 5.47-5.6 6.08v2.53h19.56v-2.53c-3.66-0.27-4.99-0.93-5.32-3.8-0.14-1.4-0.2-6.67-0.2-8.34v-19.01c0-10.06 0-10.33 5.52-10.87v-2.52h-19.56zm24.04 0v2.52c3.14 0.27 4.2 0.74 6.8 3.14-0.06 4.87-0.27 32.81-0.93 35.94-0.54 2.67-2.01 2.74-5.87 2.94v2.53h19.2v-2.53c-7.2-0.74-7.73-1.01-7.73-8.61v-24.41l18.6 22.95c2.13 2.6 4.27 5.27 6.4 7.94l4.21 5.26h2.79l0.67-36.34c0.08-7.67 0.53-8.73 5.67-8.81v-2.52h-18.54v2.52c7.48 0.27 7.68 0.68 7.74 8.14v21.08l-13.13-16.27c-6.94-8.61-7.81-9.87-11.74-15.47h-14.14zm53.11 0l-0.4 13.2h2.48c0.39-8.4 3.93-8.2 9.26-8.2h5.87v34.68c0 3.74-1.21 5.34-5.54 5.4v2.01h19.48v-2.01c-4.34-0.06-5.54-1.66-5.54-5.4v-34.68h5.87c5.34 0 8.86-0.2 9.26 8.2h2.47l-0.4-13.2h-42.81z" transform="matrix(.8 0 0 -.8 -1.8275 670.61)" fill="#fff"/></g></g></svg>
